<svg xmlns="http://www.w3.org/2000/svg" viewBox="0 0 800 480" role="img" aria-labelledby="title desc">
  <title id="title">Multi-layer Smart Address</title>
  <desc id="desc">Card-style smart address preview with map pin, entrance photo, and voice assist details.</desc>
  <defs>
    <linearGradient id="bg" x1="0" y1="0" x2="1" y2="1">
      <stop offset="0%" stop-color="#f8eff1"/>
      <stop offset="100%" stop-color="#f4dfe5"/>
    </linearGradient>
  </defs>
  <rect width="800" height="480" fill="url(#bg)"/>
  <rect x="76" y="84" width="648" height="312" rx="20" fill="#ffffff" opacity="0.92"/>
  <rect x="108" y="108" width="430" height="266" rx="20" fill="#f6f6f7" stroke="#edc8d2"/>
  <path d="M126 136h390M126 174h300M126 212h356M126 250h245M126 288h316" stroke="#e7a9b8" stroke-width="10" stroke-linecap="round"/>
  <circle cx="312" cy="236" r="44" fill="#ffe3ea"/>
  <path d="M312 194c-22 0-40 18-40 40 0 28 40 68 40 68s40-40 40-68c0-22-18-40-40-40zm0 56a15 15 0 1 1 0-30 15 15 0 0 1 0 30z" fill="#e42c2c"/>
  <rect x="560" y="108" width="132" height="116" rx="14" fill="#fbf8fa" stroke="#edc8d2"/>
  <rect x="572" y="120" width="108" height="60" rx="8" fill="#fce8ee"/>
  <path d="M580 171l14-16 13 11 17-20 16 14 12-10 15 22z" fill="none" stroke="#e42c2c" stroke-width="4" stroke-linecap="round" stroke-linejoin="round"/>
  <rect x="560" y="236" width="132" height="138" rx="14" fill="#fbf8fa" stroke="#edc8d2"/>
  <path d="M576 276c8-12 16-12 24 0m10 0c8-12 16-12 24 0m10 0c8-12 16-12 24 0" stroke="#e42c2c" stroke-width="6" stroke-linecap="round"/>
  <path d="M576 306c10-5 20-5 30 0s20 5 30 0 20-5 30 0" stroke="#e592a5" stroke-width="5" stroke-linecap="round"/>
  <rect x="572" y="334" width="108" height="24" rx="12" fill="#ffe8ee"/>
  <text x="582" y="350" font-family="Arial, sans-serif" font-size="11" font-weight="700" fill="#b0324d">VOICE ASSIST READY</text>
</svg>
