<svg xmlns="http://www.w3.org/2000/svg" viewBox="0 0 800 480" role="img" aria-labelledby="title desc">
  <title id="title">Temporary Delivery PIN</title>
  <desc id="desc">Temporary PIN card with code, timer, QR panel, and share shortcuts.</desc>
  <defs>
    <linearGradient id="bg" x1="0" y1="0" x2="1" y2="1">
      <stop offset="0%" stop-color="#ebf9f1"/>
      <stop offset="100%" stop-color="#d4f1e2"/>
    </linearGradient>
    <linearGradient id="pin" x1="0" y1="0" x2="1" y2="0">
      <stop offset="0%" stop-color="#0f9c57"/>
      <stop offset="100%" stop-color="#28c97a"/>
    </linearGradient>
  </defs>
  <rect width="800" height="480" fill="url(#bg)"/>
  <rect x="74" y="86" width="652" height="308" rx="20" fill="#ffffff" opacity="0.92"/>
  <rect x="108" y="108" width="302" height="266" rx="20" fill="#edf8f2" stroke="#bce8d2"/>
  <text x="132" y="146" font-family="Arial, sans-serif" font-size="31" font-weight="700" fill="#0d8d51">Temporary Delivery PIN</text>
  <rect x="130" y="164" width="258" height="102" rx="14" fill="url(#pin)"/>
  <text x="154" y="232" font-family="Arial, sans-serif" font-size="62" font-weight="700" letter-spacing="6" fill="#ffffff">8392</text>
  <rect x="132" y="282" width="106" height="30" rx="15" fill="#dcf6e8"/>
  <text x="146" y="301" font-family="Arial, sans-serif" font-size="12" font-weight="700" fill="#0c8f50">10:00 left</text>
  <rect x="246" y="282" width="142" height="30" rx="15" fill="#ffeacb"/>
  <text x="264" y="301" font-family="Arial, sans-serif" font-size="12" font-weight="700" fill="#bf6b00">One-time use</text>
  <rect x="442" y="112" width="250" height="188" rx="18" fill="#f9fcfa" stroke="#cde9db"/>
  <rect x="468" y="136" width="198" height="140" rx="10" fill="#ffffff" stroke="#d8e4de"/>
  <path d="M488 154h32v32h-32zm42 0h16v16h-16zm24 0h32v32h-32zm42 0h16v16h-16zM488 194h16v16h-16zm24 0h32v32h-32zm42 0h16v16h-16zm24 0h32v32h-32zM488 234h32v32h-32zm42 0h16v16h-16zm24 0h32v32h-32zm42 0h16v16h-16z" fill="#0e1a33"/>
  <rect x="442" y="316" width="250" height="34" rx="17" fill="#28c75e"/>
  <text x="462" y="338" font-family="Arial, sans-serif" font-size="14" font-weight="700" fill="#ffffff">Share on WhatsApp</text>
  <rect x="442" y="358" width="118" height="30" rx="15" fill="#f97316"/>
  <text x="482" y="377" font-family="Arial, sans-serif" font-size="13" font-weight="700" fill="#ffffff">SMS</text>
  <rect x="572" y="358" width="120" height="30" rx="15" fill="#e5e7eb"/>
  <text x="613" y="377" font-family="Arial, sans-serif" font-size="13" font-weight="700" fill="#374151">Link</text>
</svg>
